<?xml version="1.0" encoding="UTF-8" standalone="no"?>
<svg
   xmlns:dc="http://purl.org/dc/elements/1.1/"
   xmlns:cc="http://creativecommons.org/ns#"
   xmlns:rdf="http://www.w3.org/1999/02/22-rdf-syntax-ns#"
   xmlns:svg="http://www.w3.org/2000/svg"
   xmlns="http://www.w3.org/2000/svg"
   xmlns:sodipodi="http://sodipodi.sourceforge.net/DTD/sodipodi-0.dtd"
   xmlns:inkscape="http://www.inkscape.org/namespaces/inkscape"
   width="22.19832mm"
   height="26.46723mm"
   viewBox="0 0 22.19832 26.46723"
   version="1.1"
   id="svg8"
   inkscape:version="1.0.2 (1.0.2+r75+1)"
   sodipodi:docname="logo-icon.svg">
  <defs
     id="defs2" />
  <sodipodi:namedview
     id="base"
     pagecolor="#ffffff"
     bordercolor="#666666"
     borderopacity="1.0"
     inkscape:pageopacity="0"
     inkscape:pageshadow="2"
     inkscape:zoom="5.6"
     inkscape:cx="43.555647"
     inkscape:cy="59.626913"
     inkscape:document-units="mm"
     inkscape:current-layer="g885"
     inkscape:document-rotation="0"
     showgrid="false"
     fit-margin-top="0"
     fit-margin-left="0"
     fit-margin-right="0"
     fit-margin-bottom="0"
     inkscape:window-width="1600"
     inkscape:window-height="797"
     inkscape:window-x="0"
     inkscape:window-y="0"
     inkscape:window-maximized="1"
     inkscape:pagecheckerboard="false" />
  <metadata
     id="metadata5">
    <rdf:RDF>
      <cc:Work
         rdf:about="">
        <dc:format>image/svg+xml</dc:format>
        <dc:type
           rdf:resource="http://purl.org/dc/dcmitype/StillImage" />
        <dc:title></dc:title>
      </cc:Work>
    </rdf:RDF>
  </metadata>
  <g
     inkscape:label="Capa 1"
     inkscape:groupmode="layer"
     id="layer1"
     transform="translate(-95.975193,-116.48571)">
    <g
       id="g885"
       transform="translate(-24.166327,6.5515255)">
      <path
         style="fill:#a0d4f9;stroke-width:0.213445"
         d="m 128.14572,134.96533 c -0.75731,-0.0557 -1.22218,-0.22554 -1.60084,-0.58494 -0.29349,-0.27856 -1.08777,-1.01005 -1.76508,-1.62552 -0.67731,-0.61548 -1.43678,-1.46353 -1.68772,-1.88458 -0.25094,-0.42104 -0.74019,-1.06946 -1.08723,-1.44095 -0.43813,-0.46899 -0.66362,-0.96502 -0.73778,-1.62294 -0.0587,-0.52114 -0.004,-1.13905 0.12099,-1.37314 0.12528,-0.23409 0.32676,-1.04025 0.44774,-1.79147 0.47687,-2.96106 2.45444,-5.52867 5.29424,-6.87386 1.34026,-0.63487 1.60152,-0.6831 3.68375,-0.68014 2.28442,0.003 2.23889,-0.008 4.55692,1.13136 0.0997,0.049 0.004,-0.18199 -0.21344,-0.51333 -0.33191,-0.50655 -0.39388,-1.02863 -0.38936,-3.2799 0.004,-1.95058 0.0955,-2.88027 0.33746,-3.42451 0.33207,-0.74706 0.33207,-0.74706 0.48629,1.27707 0.18418,2.4173 0.70426,4.05965 2.52307,7.9675 1.106,2.37632 1.46045,2.94514 2.02447,3.24888 0.37605,0.20252 0.89199,0.5899 1.14653,0.86084 0.4628,0.49263 0.4628,0.49263 -0.4902,0.20582 -0.953,-0.28681 -0.953,-0.28681 -0.95836,1.45427 -0.006,1.83814 -0.49262,3.63897 -1.29204,4.77818 -0.60263,0.85877 -0.75257,1.99776 -0.39833,3.02594 0.1656,0.48066 0.22481,0.87393 0.13159,0.87393 -0.19293,0 -1.19346,-1.14371 -1.31223,-1.50002 -0.0461,-0.13818 -0.60449,0.0817 -1.35445,0.5333 -2.17831,1.31173 -3.49519,1.53012 -7.46599,1.23821 z m 5.72124,-2.73217 c 1.47361,-0.72338 2.56479,-1.86667 3.28681,-3.44377 0.40331,-0.88093 0.52794,-1.50988 0.52794,-2.66418 0,-0.83105 -0.0824,-1.59337 -0.18302,-1.69403 -0.10174,-0.10174 -1.08182,0.002 -2.20665,0.23449 -1.113,0.22964 -2.09405,0.41878 -2.18012,0.42033 -0.27658,0.005 -1.5033,2.67025 -3.18268,6.91501 -0.41243,1.04246 -0.41243,1.04246 1.1432,0.94138 1.1293,-0.0734 1.89516,-0.26774 2.79452,-0.70923 z m -6.17536,-0.47419 c 0.21531,-0.74293 1.20118,-5.34073 1.20118,-5.60196 0,-0.32589 -0.67378,-0.20949 -3.14832,0.54387 -1.34117,0.40831 -1.76092,0.62623 -1.76092,0.91422 0,0.74411 1.10258,2.57104 2.1338,3.53564 0.57728,0.53997 1.14328,0.98176 1.2578,0.98176 0.11451,0 0.25692,-0.16809 0.31646,-0.37353 z m -2.10722,-7.96356 c 2.01864,-0.67638 4.64938,-1.07853 8.06241,-1.23247 3.15316,-0.14221 3.15316,-0.14221 2.48018,-0.9575 -0.86912,-1.05291 -1.96848,-1.73722 -3.51154,-2.1858 -1.4982,-0.43554 -3.24297,-0.32602 -4.63813,0.29112 -1.11453,0.49301 -2.81322,1.97842 -3.26782,2.85754 -0.48237,0.9328 -0.73016,1.66722 -0.56058,1.66147 0.0851,-0.003 0.73111,-0.19835 1.43548,-0.43436 z"
         id="path897" />
      <path
         style="fill:#57b1f5;stroke-width:0.213445"
         d="m 128.25244,134.96218 c -0.93828,-0.0636 -1.30249,-0.20247 -1.81428,-0.69174 -0.35219,-0.3367 -1.05668,-0.97399 -1.56554,-1.41621 -0.50886,-0.44222 -1.21915,-1.24176 -1.57842,-1.77675 -0.35927,-0.53499 -0.93832,-1.27665 -1.28677,-1.64814 -0.76272,-0.81312 -1.03229,-2.33949 -0.54908,-3.10905 0.1673,-0.26643 0.33302,-0.86863 0.36826,-1.33821 0.14935,-1.9897 1.30787,-4.20029 2.98173,-5.68949 1.96872,-1.75154 4.84278,-2.60185 7.33948,-2.17145 1.09842,0.18936 2.19307,0.56225 3.1927,1.08759 0.0831,0.0437 -0.0129,-0.23941 -0.21344,-0.62908 -0.28306,-0.55013 -0.36302,-1.25718 -0.3577,-3.16312 0.005,-1.81463 0.0979,-2.6494 0.35612,-3.20168 0.34926,-0.74706 0.34926,-0.74706 0.37038,0.53362 0.042,2.54791 0.55921,4.15178 3.10318,9.62329 0.62013,1.33376 0.96386,1.81276 1.51314,2.10856 0.3909,0.21052 0.91899,0.60444 1.17353,0.87538 0.4628,0.49263 0.4628,0.49263 -0.49809,0.20344 -0.9609,-0.28918 -0.9609,-0.28918 -1.04458,1.79426 -0.0781,1.94394 -0.14558,2.20952 -1.00804,3.96629 -0.94383,1.92251 -0.98634,2.22681 -0.55145,3.94726 0.13488,0.53362 0.13488,0.53362 -0.40448,-0.0521 -0.29664,-0.32217 -0.62945,-0.74674 -0.73957,-0.94351 -0.17925,-0.32031 -0.30792,-0.2864 -1.22954,0.32405 -0.56614,0.375 -1.64385,0.87161 -2.39491,1.10359 -1.32042,0.40784 -2.29585,0.45757 -5.16263,0.26323 z m 5.05975,-2.4375 c 0.87239,-0.3264 1.58892,-0.81678 2.44636,-1.67422 1.02999,-1.02999 1.28338,-1.4456 1.68252,-2.7597 0.38421,-1.26491 0.43561,-1.74791 0.28181,-2.64806 -0.18079,-1.05806 -0.21302,-1.09868 -0.82718,-1.04244 -0.35148,0.0322 -1.38953,0.21549 -2.30679,0.40733 -1.65689,0.34654 -1.67095,0.35518 -2.16248,1.32888 -0.46043,0.91208 -1.54645,3.46161 -2.48592,5.83594 -0.40116,1.01387 -0.40116,1.01387 0.86839,1.01387 0.77875,0 1.7465,-0.17845 2.50329,-0.4616 z m -5.06757,-3.20433 c 0.35649,-1.59442 0.64816,-3.01869 0.64816,-3.16504 0,-0.32397 -0.67818,-0.20645 -3.14832,0.54557 -1.31676,0.40088 -1.7604,0.62858 -1.75884,0.90277 0.005,0.84773 1.05395,2.55477 2.23165,3.63113 0.67925,0.62079 1.26744,1.09627 1.30709,1.05662 0.0396,-0.0397 0.36377,-1.37663 0.72026,-2.97105 z m -2.66024,-5.52494 c 2.02908,-0.67988 4.65562,-1.07899 8.11092,-1.23247 3.20168,-0.14221 3.20168,-0.14221 2.27138,-1.1517 -0.51166,-0.55523 -1.45187,-1.26468 -2.08935,-1.57657 -1.52303,-0.74515 -3.64554,-0.91781 -5.14799,-0.41878 -1.49644,0.49704 -2.94304,1.50694 -3.65131,2.54907 -0.62854,0.92481 -1.17849,2.2738 -0.92331,2.26481 0.0819,-0.003 0.72529,-0.19835 1.42966,-0.43436 z"
         id="path895" />
      <path
         style="fill:#dd6789;stroke-width:0.213445"
         d="m 129.68787,134.99089 c -0.0714,-0.0714 -0.70657,-0.12172 -1.41147,-0.1118 -1.1307,0.0159 -1.33206,-0.0461 -1.70981,-0.52629 -0.23549,-0.29939 -0.81126,-0.82185 -1.27949,-1.16103 -0.46822,-0.33918 -1.16918,-1.062 -1.55769,-1.60627 -0.38851,-0.54426 -1.0783,-1.41171 -1.53288,-1.92766 -0.61974,-0.7034 -0.85351,-1.17762 -0.93443,-1.8956 -0.0722,-0.64034 -0.004,-1.11798 0.20597,-1.44195 0.17264,-0.26643 0.37403,-1.00165 0.44753,-1.63381 0.19042,-1.63774 1.21283,-3.67214 2.48466,-4.94398 1.84578,-1.84577 4.83145,-2.92923 7.26731,-2.63721 1.3785,0.16526 3.26663,0.82387 3.63526,1.26804 0.46892,0.56502 0.65604,0.32517 0.21444,-0.27486 -0.89821,-1.22047 -1.06336,-4.39955 -0.34717,-6.68287 0.29728,-0.94781 0.29728,-0.94781 0.31838,0.48244 0.0116,0.78664 0.12864,1.93165 0.26006,2.54446 0.26278,1.22529 1.38214,4.01317 2.71844,6.77054 0.70021,1.44482 1.03599,1.8907 1.78091,2.3648 0.5049,0.32135 1.05236,0.74781 1.21659,0.94769 0.271,0.32986 0.25128,0.34597 -0.21345,0.17443 -0.28162,-0.10394 -0.7551,-0.24762 -1.05219,-0.31928 -0.54015,-0.13029 -0.54015,-0.13029 -0.45762,1.33039 0.0966,1.70883 -0.33108,3.42359 -1.2619,5.06002 -0.64686,1.13721 -0.78423,2.18715 -0.41367,3.1618 0.31289,0.82296 -0.1047,0.66165 -0.65471,-0.25291 -0.26475,-0.44023 -0.51309,-0.84082 -0.55186,-0.8902 -0.0388,-0.0494 -0.28624,0.10812 -0.54991,0.34998 -0.71465,0.65555 -2.46556,1.46952 -3.74496,1.74098 -1.23157,0.26131 -2.67009,0.3164 -2.87634,0.11015 z m 4.20442,-2.63183 c 1.37293,-0.67135 2.59661,-1.91543 3.23114,-3.28499 0.62368,-1.34616 0.8295,-2.60482 0.63645,-3.89218 -0.16568,-1.10482 0.17936,-1.06073 -3.06424,-0.39156 -1.77446,0.36607 -1.77446,0.36607 -2.26921,1.34614 -0.46223,0.91563 -1.54756,3.46432 -2.49493,5.85881 -0.41018,1.03674 -0.41018,1.03674 1.24992,0.95717 1.19894,-0.0575 1.95199,-0.2223 2.71087,-0.59339 z m -5.61752,-3.18107 c 0.37073,-1.67038 0.61416,-3.09696 0.54095,-3.17017 -0.14369,-0.14369 -3.21563,0.6463 -4.35475,1.11988 -0.69652,0.28957 -0.69652,0.28957 -0.29689,1.34132 0.4995,1.31457 1.38609,2.49102 2.46825,3.27519 0.45897,0.33259 0.86462,0.57459 0.90143,0.53778 0.0368,-0.0368 0.37027,-1.43361 0.74101,-3.104 z m -2.05745,-5.56422 c 2.06675,-0.61463 5.6876,-1.08631 8.3391,-1.08631 1.22861,0 2.23384,-0.0885 2.23384,-0.1966 0,-0.40232 -1.93116,-2.10934 -2.92232,-2.58313 -0.71576,-0.34215 -1.54324,-0.51882 -2.73398,-0.58372 -1.37606,-0.075 -1.93876,-0.006 -2.89845,0.35623 -0.65499,0.24711 -1.59216,0.79276 -2.0826,1.21256 -0.88319,0.75598 -1.76914,2.06604 -2.06479,3.05322 -0.12938,0.43202 -0.0914,0.49273 0.24464,0.3907 0.21881,-0.0664 1.06686,-0.31977 1.88456,-0.56295 z"
         id="path893" />
      <path
         style="fill:#0f8bf0;stroke-width:0.213;stroke-miterlimit:4;stroke-dasharray:none"
         d="m 129.10623,134.90147 c -0.41089,-0.0966 -0.99853,-0.12529 -1.30587,-0.0638 -0.43066,0.0861 -0.73038,-0.0522 -1.30689,-0.603 -0.41144,-0.39311 -1.13219,-1.02201 -1.60167,-1.39755 -0.46948,-0.37555 -1.15415,-1.14395 -1.52148,-1.70757 -0.36733,-0.56361 -0.9499,-1.32798 -1.2946,-1.6986 -0.80803,-0.86877 -1.02526,-1.98328 -0.58895,-3.02165 0.18185,-0.43277 0.38694,-1.2649 0.45575,-1.84918 0.18313,-1.55478 1.21232,-3.57216 2.45774,-4.81759 1.84578,-1.84577 4.83145,-2.92923 7.26731,-2.63721 1.3785,0.16526 3.26663,0.82387 3.63526,1.26804 0.46892,0.56502 0.65604,0.32517 0.21444,-0.27486 -0.89821,-1.22047 -1.06336,-4.39955 -0.34717,-6.68287 0.29728,-0.94781 0.29728,-0.94781 0.31838,0.48244 0.0116,0.78664 0.12864,1.93165 0.26006,2.54446 0.26503,1.23577 1.52594,4.37352 2.67215,6.64959 0.42228,0.83855 0.68841,1.63012 0.61359,1.8251 -0.0727,0.18937 -0.0697,0.28185 0.007,0.20551 0.15266,-0.15266 2.04236,0.94722 2.4301,1.41442 0.20596,0.24816 0.11955,0.24889 -0.56462,0.005 -0.44427,-0.1585 -0.90697,-0.2924 -1.0282,-0.29755 -0.13881,-0.006 -0.1897,0.53427 -0.13745,1.459 0.097,1.71701 -0.32896,3.42831 -1.26147,5.0677 -0.64686,1.13721 -0.78423,2.18715 -0.41367,3.1618 0.31289,0.82296 -0.1047,0.66165 -0.65471,-0.25291 -0.26475,-0.44023 -0.51309,-0.84082 -0.55186,-0.8902 -0.0388,-0.0494 -0.28624,0.10812 -0.54991,0.34998 -0.71465,0.65555 -2.46556,1.46952 -3.74496,1.74098 -1.27834,0.27124 -2.36436,0.27775 -3.45798,0.0207 z m 4.78606,-2.54241 c 1.37293,-0.67135 2.59661,-1.91543 3.23114,-3.28499 0.6255,-1.35007 0.82943,-2.60527 0.63449,-3.90522 -0.14803,-0.98717 -0.14803,-0.98717 -1.07453,-0.86018 -0.50958,0.0698 -1.59455,0.27893 -2.41106,0.46464 -1.48455,0.33766 -1.48455,0.33766 -2.13451,1.76733 -0.79427,1.74709 -2.6047,6.16273 -2.6047,6.35284 0,0.0759 0.74439,0.10232 1.6542,0.0587 1.19295,-0.0572 1.94719,-0.22257 2.70497,-0.59312 z m -5.55682,-3.04689 c 0.30652,-1.37509 0.55731,-2.7336 0.55731,-3.01891 0,-0.49212 -0.0425,-0.5092 -0.82741,-0.33284 -0.45507,0.10225 -1.61236,0.43387 -2.57174,0.73694 -1.59858,0.50499 -1.7324,0.59011 -1.60164,1.01872 0.53695,1.75998 1.44025,3.08603 2.74742,4.03326 0.62679,0.4542 0.87951,0.54006 0.99017,0.33642 0.0817,-0.15038 0.39938,-1.3985 0.70589,-2.77359 z m -5.91369,-0.42137 c -0.0681,-0.17028 -0.11871,-0.1197 -0.12896,0.12895 -0.009,0.22501 0.0412,0.35108 0.11211,0.28015 0.0709,-0.0709 0.0785,-0.25502 0.0169,-0.4091 z m 4.97063,-5.53005 c 1.80482,-0.4083 5.63837,-0.83329 7.51663,-0.83329 1.03467,0 1.88122,-0.0885 1.88122,-0.1966 0,-0.40232 -1.93116,-2.10934 -2.92232,-2.58313 -0.71576,-0.34215 -1.54324,-0.51882 -2.73398,-0.58372 -1.38136,-0.0753 -1.93783,-0.006 -2.91291,0.36164 -0.66294,0.25008 -1.6394,0.83677 -2.16991,1.30374 -0.88303,0.77727 -2.0676,2.68471 -2.0676,3.32932 0,0.19511 0.32966,0.15276 1.22731,-0.15766 0.67502,-0.23343 1.65672,-0.52156 2.18156,-0.6403 z"
         id="path891" />
      <path
         style="fill:#3c6ac8;stroke-width:0.213445"
         d="m 127.02269,134.76511 c -0.14809,-0.0597 -0.37538,-0.30677 -0.50509,-0.54912 -0.19733,-0.36872 -0.18062,-0.41947 0.10234,-0.31089 0.31855,0.12224 0.60109,-0.11705 0.70688,-0.59865 0.0258,-0.1174 0.1005,-0.40555 0.16603,-0.64034 0.47621,-1.70633 1.39478,-5.86643 1.3971,-6.32731 0.003,-0.54526 -0.0251,-0.55802 -0.82458,-0.37838 -0.45507,0.10225 -1.58599,0.42554 -2.51315,0.71843 -1.15109,0.36363 -1.94552,0.77048 -2.50482,1.28278 -0.6945,0.63614 -0.79679,0.83906 -0.67253,1.33417 0.14558,0.58001 0.14358,0.58123 -0.29818,0.18145 -0.55913,-0.50601 -0.9671,-1.82985 -0.78613,-2.55091 0.0758,-0.30197 0.42746,-0.87894 0.78148,-1.28215 0.47115,-0.53661 1.13436,-0.91066 2.47429,-1.3955 2.23017,-0.80697 3.12647,-1.01362 6.15448,-1.41894 2.80599,-0.3756 6.5178,-0.35815 7.63463,0.0359 0.44149,0.15577 0.80272,0.24034 0.80272,0.18794 0,-0.15251 2.06507,1.16082 2.33312,1.48381 0.19822,0.23883 0.0736,0.23425 -0.67134,-0.0247 -1.14783,-0.399 -4.31423,-0.28422 -6.49117,0.23531 -1.52099,0.36298 -1.52099,0.36298 -2.17095,1.79265 -0.35748,0.78632 -1.0942,2.53425 -1.63715,3.8843 -0.54295,1.35004 -1.07011,2.64672 -1.17146,2.88151 -0.10135,0.23479 -0.23855,0.59642 -0.30488,0.80362 -0.0663,0.2072 -0.36945,0.47134 -0.67359,0.58698 -0.59163,0.22493 -0.8995,0.24071 -1.32805,0.0681 z"
         id="path889" />
      <path
         style="fill:#fd092a;stroke-width:0.213445"
         d="m 126.8695,134.62083 c -0.419,-0.31041 -0.41869,-0.31617 0.039,-0.70695 0.35233,-0.3008 0.64156,-1.17994 1.22286,-3.71691 0.41876,-1.82761 0.76138,-3.57032 0.76138,-3.87269 0,-0.52815 -0.0325,-0.54245 -0.82741,-0.36386 -0.45507,0.10225 -1.60406,0.43125 -2.5533,0.73112 -1.19938,0.37888 -1.96369,0.76948 -2.50542,1.2804 -0.64934,0.6124 -0.75698,0.83407 -0.64455,1.32728 0.13498,0.5921 0.13498,0.5921 -0.39295,0.004 -0.29036,-0.3233 -0.59458,-0.94309 -0.67604,-1.3773 -0.10963,-0.58439 -0.0428,-0.98444 0.2573,-1.54003 0.48313,-0.89446 1.40093,-1.54698 3.03676,-2.15902 1.8869,-0.70599 3.33254,-1.03256 6.21866,-1.40482 4.96376,-0.64023 8.41049,-0.171 10.2579,1.3965 0.7425,0.62999 0.7425,0.62999 -0.21801,0.30293 -0.69741,-0.23748 -1.51592,-0.301 -2.98823,-0.23191 -1.11526,0.0523 -2.70826,0.25759 -3.54002,0.45615 -1.7684,0.42214 -1.44701,-0.0588 -3.86638,5.78565 -0.87474,2.11311 -1.65825,3.91225 -1.74113,3.9981 -0.0829,0.0858 -0.43584,0.21187 -0.78435,0.28006 -0.39705,0.0777 -0.79142,0.007 -1.05611,-0.18899 z"
         id="path887" />
    </g>
  </g>
</svg>
